#!OML:ASF H:\Pregnant\Project 1\Capture day 1\Session 1\femalepreg.ASF
:FULLY-SPECIFIED
:DEGREES
243
root -9.34084 15.7592 -2.02519 -161.293 4.89176 178.676
lowerback -9.92297 -1.41273 -9.09681
upperback -2.79149 0.0175723 -5.75348
thorax 2.69466 0.32034 -0.891806
lowerneck -19.14 -3.4794 0.787296
upperneck 31.4806 -5.366 4.96753
head 14.1035 -0.848333 1.08964
rclavicle 1.19271e-014 1.27222e-014
rhumerus -44.7215 17.9502 -93.5011
rradius 54.3021
rwrist -17.315
rhand -24.6218 -17.1014
rfingers 7.12502
rthumb 1.87685 -47.0729
lclavicle 1.19271e-014 1.27222e-014
lhumerus -32.2339 -6.25804 65.5773
lradius 19.8059
lwrist 17.1134
lhand -27.5068 2.56492
lfingers 7.12502
lthumb -0.909527 32.5427
rfemur -38.8157 5.23326 20.9426
rtibia 76.5093
rfoot -0.978278 -7.07846
rtoes -10.3034
lfemur -41.2732 -8.11214 -18.8761
ltibia 35.9976
lfoot -13.3174 -2.36009
ltoes -21.4148
244
root -9.33444 15.7791 -2.18792 -161.168 4.60196 178.802
lowerback -9.98643 -1.45718 -9.16941
upperback -2.82848 0.00254755 -5.87039
thorax 2.69352 0.325031 -0.976853
lowerneck -19.0261 -3.56259 0.782326
upperneck 31.5573 -5.54491 5.24424
head 14.1313 -0.86963 1.17738
rclavicle -2.38542e-015 -2.8625e-014
rhumerus -45.3427 16.8419 -93.2373
rradius 51.6335
rwrist -16.9791
rhand -24.9138 -17.3079
rfingers 7.12502
rthumb 1.5948 -47.2817
lclavicle -2.38542e-015 -2.8625e-014
lhumerus -30.4343 -6.34695 66.1699
lradius 20.6572
lwrist 15.9791
lhand -28.1134 1.87604
lfingers 7.12502
lthumb -1.49547 31.8505
rfemur -40.3884 5.10195 21.2817
rtibia 77.2636
rfoot -1.20565 -7.71616
rtoes -9.94464
lfemur -40.6769 -8.19752 -18.8384
ltibia 35.9012
lfoot -13.804 -2.38666
ltoes -21.4435
245
root -9.32826 15.7974 -2.3506 -161.032 4.29658 178.94
lowerback -10.0581 -1.50586 -9.20952
upperback -2.86685 -0.0236647 -5.96854
thorax 2.69572 0.32305 -1.06165
lowerneck -18.9354 -3.63586 0.799999
upperneck 31.6175 -5.71557 5.50525
head 14.1562 -0.888265 1.25574
rclavicle -3.18055e-015 -2.06736e-014
rhumerus -45.8667 15.7374 -92.8973
rradius 48.8149
rwrist -16.6224
rhand -24.962 -17.5268
rfingers 7.12502
rthumb 1.54827 -47.5009
lclavicle -3.18055e-015 -2.06736e-014
lhumerus -28.7098 -6.27458 66.7654
lradius 21.6296
lwrist 15.305
lhand -28.6337 1.03284
lfingers 7.12502
lthumb -1.99799 31.0032
rfemur -41.9337 5.01608 21.6176
rtibia 77.8038
rfoot -1.46386 -8.17165
rtoes -9.73758
lfemur -40.1036 -8.29023 -18.7796
ltibia 35.807
lfoot -14.2722 -2.41954
ltoes -21.485
246
root -9.32269 15.8144 -2.5136 -160.899 3.95884 179.087
lowerback -10.1215 -1.56335 -9.21681
upperback -2.90469 -0.0709833 -6.04142
thorax 2.69446 0.309076 -1.14061
lowerneck -18.8507 -3.6969 0.832576
upperneck 31.6459 -5.87067 5.7484
head 14.167 -0.903873 1.326
rclavicle 1.03368e-014 -6.67916e-014
rhumerus -46.3067 14.6159 -92.4562
rradius 45.8945
rwrist -16.2401
rhand -24.7419 -17.7825
rfingers 7.12502
rthumb 1.76085 -47.755
lclavicle 1.03368e-014 -6.67916e-014
lhumerus -27.0794 -6.12393 67.4152
lradius 22.7228
lwrist 15.1816
lhand -29.0566 0.0937825
lfingers 7.12502
lthumb -2.40642 30.06
rfemur -43.4265 4.9558 21.9528
rtibia 78.1308
rfoot -1.77054 -8.49235
rtoes -9.70816
lfemur -39.5455 -8.4154 -18.6953
ltibia 35.7222
lfoot -14.7203 -2.44911
ltoes -21.531
247
root -9.31797 15.8298 -2.67699 -160.761 3.59722 179.243
lowerback -10.1866 -1.62562 -9.19448
upperback -2.94115 -0.133195 -6.08491
thorax 2.69575 0.285651 -1.20695
lowerneck -18.7895 -3.7521 0.866685
upperneck 31.6551 -6.01411 5.96452
head 14.1733 -0.920732 1.38599
rclavicle 8.34896e-015 -6.36111e-014
rhumerus -46.6645 13.4516 -91.8758
rradius 42.9158
rwrist -15.8076
rhand -24.1963 -18.1665
rfingers 7.12502
rthumb 2.28781 -48.134
lclavicle 8.34896e-015 -6.36111e-014
lhumerus -25.5523 -5.96712 68.1536
lradius 23.9359
lwrist 15.6395
lhand -29.3688 -0.888524
lfingers 7.12502
lthumb -2.70786 29.074
rfemur -44.872 4.92072 22.2789
rtibia 78.2528
rfoot -2.15114 -8.71703
rtoes -9.80967
lfemur -39.0095 -8.57647 -18.5864
ltibia 35.6514
lfoot -15.1501 -2.46237
ltoes -21.5958
248
root -9.31424 15.8436 -2.84088 -160.618 3.21932 179.398
lowerback -10.2547 -1.69583 -9.15958
upperback -2.97761 -0.213091 -6.09392
thorax 2.69893 0.251346 -1.24634
lowerneck -18.7515 -3.8058 0.896262
upperneck 31.6397 -6.14917 6.14524
head 14.1721 -0.943281 1.43231
rclavicle 1.27222e-014 1.90833e-014
rhumerus -46.948 12.2147 -91.1137
rradius 39.9068
rwrist -15.2898
rhand -23.3442 -18.6304
rfingers 7.12502
rthumb 3.11074 -48.5874
lclavicle 1.27222e-014 1.90833e-014
lhumerus -24.1302 -5.8251 68.988
lradius 25.2642
lwrist 16.6691
lhand -29.5573 -1.76606
lfingers 7.12502
lthumb -2.88997 28.1941
rfemur -46.2729 4.90576 22.5827
rtibia 78.1821
rfoot -2.59912 -8.87635
rtoes -10.021
lfemur -38.4929 -8.77855 -18.4626
ltibia 35.593
lfoot -15.561 -2.45179
ltoes -21.675
249
root -9.31139 15.8555 -3.00489 -160.477 2.81958 179.549
lowerback -10.3071 -1.77474 -9.11895
upperback -3.01383 -0.313724 -6.06877
thorax 2.69427 0.204872 -1.25552
lowerneck -18.7344 -3.85819 0.916531
upperneck 31.599 -6.27572 6.29463
head 14.1629 -0.971608 1.4674
rclavicle -3.97569e-016 -9.22361e-014
rhumerus -47.1592 10.8678 -90.1304
rradius 36.8892
rwrist -14.6294
rhand -22.1824 -19.1823
rfingers 7.12502
rthumb 4.23261 -49.1199
lclavicle -3.97569e-016 -9.22361e-014
lhumerus -22.8082 -5.70519 69.9106
lradius 26.6963
lwrist 18.2011
lhand -29.6183 -2.36701
lfingers 7.12502
lthumb -2.9488 27.5923
rfemur -47.6239 4.89996 22.8623
rtibia 77.9289
rfoot -3.10333 -8.99829
rtoes -10.2688
lfemur -37.99 -9.02634 -18.3277
ltibia 35.5481
lfoot -15.9528 -2.41906
ltoes -21.7806
250
root -9.30939 15.8658 -3.16902 -160.336 2.40155 179.695
lowerback -10.3459 -1.86327 -9.07653
upperback -3.05109 -0.436064 -6.00608
thorax 2.68179 0.145672 -1.2289
lowerneck -18.7263 -3.9067 0.909375
upperneck 31.5235 -6.38882 6.43178
head 14.1401 -1.00378 1.50277
rclavicle 1.51076e-014 5.725e-014
rhumerus -47.3058 9.37208 -88.8753
rradius 33.8877
rwrist -13.7616
rhand -20.7438 -19.828
rfingers 7.12502
rthumb 5.62169 -49.7335
lclavicle 1.51076e-014 5.725e-014
lhumerus -21.5777 -5.58493 70.9107
lradius 28.2078
lwrist 20.1482
lhand -29.551 -2.78484
lfingers 7.12502
lthumb -2.88388 27.1754
rfemur -48.9248 4.90257 23.1144
rtibia 77.4987
rfoot -3.64255 -9.10223
rtoes -10.5187
lfemur -37.5009 -9.31257 -18.1843
ltibia 35.514
lfoot -16.3272 -2.37199
ltoes -21.891
251
root -9.30798 15.8746 -3.33314 -160.198 1.96429 179.836
lowerback -10.364 -1.96239 -9.03636
upperback -3.09079 -0.582057 -5.90477
thorax 2.65644 0.0729797 -1.16323
lowerneck -18.7206 -3.95624 0.873495
upperneck 31.4128 -6.49427 6.55502
head 14.1024 -1.04281 1.53697
rclavicle 9.14409e-015 3.18055e-014
rhumerus -47.3943 7.69268 -87.3039
rradius 30.9153
rwrist -12.6162
rhand -19.0957 -20.5592
rfingers 7.12502
rthumb 7.21282 -50.4163
lclavicle 9.14409e-015 3.18055e-014
lhumerus -20.4311 -5.42925 71.9734
lradius 29.7807
lwrist 22.4153
lhand -29.3595 -3.01205
lfingers 7.12502
lthumb -2.69888 26.9506
rfemur -50.1727 4.91813 23.3392
rtibia 76.896
rfoot -4.19284 -9.21001
rtoes -10.7019
lfemur -37.0243 -9.62985 -18.033
ltibia 35.4917
lfoot -16.684 -2.31963
ltoes -22.0067
252
root -9.30641 15.8828 -3.4971 -160.065 1.50604 179.977
lowerback -10.3519 -2.07022 -8.99809
upperback -3.13364 -0.749893 -5.76869
thorax 2.61257 -0.0119103 -1.06228
lowerneck -18.7244 -4.00796 0.812765
upperneck 31.274 -6.59655 6.66959
head 14.0549 -1.08852 1.5709
rclavicle -8.34896e-015 -3.49861e-014
rhumerus -47.4375 5.78686 -85.3811
rradius 27.9853
rwrist -11.1061
rhand -17.3619 -21.3262
rfingers 7.12502
rthumb 8.8861 -51.1191
lclavicle -8.34896e-015 -3.49861e-014
lhumerus -19.3614 -5.2378 73.0824
lradius 31.4061
lwrist 24.908
lhand -29.0508 -3.06449
lfingers 7.12502
lthumb -2.40078 26.9017
rfemur -51.3564 4.95247 23.5415
rtibia 76.1181
rfoot -4.72678 -9.34697
rtoes -10.8418
lfemur -36.5562 -9.96605 -17.8691
ltibia 35.4757
lfoot -17.0245 -2.27666
ltoes -22.1114
253
root -9.30495 15.8895 -3.66073 -159.923 1.03796 180.109
lowerback -10.3254 -2.18605 -8.96431
upperback -3.18381 -0.934007 -5.60596
thorax 2.5548 -0.105383 -0.932598
lowerneck -18.7397 -4.06651 0.732127
upperneck 31.1165 -6.70245 6.7715
head 14.0021 -1.14286 1.60125
rclavicle -1.15295e-014 -1.11319e-013
rhumerus -47.4665 3.60144 -83.0557
rradius 25.1275
rwrist -9.08731
rhand -15.6362 -22.1085
rfingers 7.12502
rthumb 10.5511 -51.8236
lclavicle -1.15295e-014 -1.11319e-013
lhumerus -18.3719 -5.01034 74.2269
lradius 33.0844
lwrist 27.5318
lhand -28.6453 -2.97969
lfingers 7.12502
lthumb -2.00915 26.9906
rfemur -52.4923 5.00405 23.7062
rtibia 75.1757
rfoot -5.23934 -9.52207
rtoes -11.0029
lfemur -36.1049 -10.3105 -17.7056
ltibia 35.4585
lfoot -17.3418 -2.24886
ltoes -22.2129
254
root -9.30325 15.8958 -3.82454 -159.787 0.557211 180.235
lowerback -10.2765 -2.30686 -8.93069
upperback -3.23975 -1.13156 -5.41927
thorax 2.48045 -0.205964 -0.778795
lowerneck -18.7584 -4.1348 0.630504
upperneck 30.9442 -6.81557 6.86521
head 13.9446 -1.20619 1.62973
rclavicle 2.18663e-014 -7.95139e-014
rhumerus -47.5356 1.09271 -80.2768
rradius 22.3865
rwrist -6.43828
rhand -14.0626 -22.8553
rfingers 7.12502
rthumb 12.0688 -52.4873
lclavicle 2.18663e-014 -7.95139e-014
lhumerus -17.4592 -4.7647 75.4003
lradius 34.7975
lwrist 30.1918
lhand -28.1792 -2.77461
lfingers 7.12502
lthumb -1.55894 27.1994
rfemur -53.5536 5.07531 23.8386
rtibia 74.0648
rfoot -5.7257 -9.75954
rtoes -11.1716
lfemur -35.6461 -10.66 -17.5393
ltibia 35.4261
lfoot -17.6371 -2.23784
ltoes -22.3191
255
root -9.30128 15.9021 -3.98865 -159.652 0.0602462 180.348
lowerback -10.2089 -2.43605 -8.90122
upperback -3.3004 -1.34448 -5.21429
thorax 2.39314 -0.314201 -0.604871
lowerneck -18.7882 -4.21254 0.516812
upperneck 30.7646 -6.93735 6.9464
head 13.887 -1.27792 1.65304
rclavicle -5.96354e-015 0
rhumerus -47.7238 -1.73033 -77.0288
rradius 19.8561
rwrist -3.09324
rhand -12.728 -23.6006
rfingers 7.12502
rthumb 13.3554 -53.1526
lclavicle -5.96354e-015 0
lhumerus -16.6269 -4.51278 76.5893
lradius 36.5531
lwrist 32.7727
lhand -27.6641 -2.4296
lfingers 7.12502
lthumb -1.06145 27.5475
rfemur -54.537 5.1544 23.9285
rtibia 72.7896
rfoot -6.18996 -10.066
rtoes -11.3367
lfemur -35.1739 -11.017 -17.3792
ltibia 35.367
lfoot -17.9086 -2.24725
ltoes -22.4403
256
root -9.29922 15.9087 -4.15353 -159.52 -0.446825 180.45
lowerback -10.1252 -1.52436 -9.05184
upperback -3.26774 -1.79907 -5.047
thorax 2.30763 -1.24581 -0.421671
lowerneck -18.8319 -4.30162 0.390175
upperneck 30.5752 -7.07238 7.02176
head 13.8294 -1.35913 1.67315
rclavicle 1.31198e-014 -1.30403e-013
rhumerus -48.1231 -4.8022 -73.3428
rradius 17.645
rwrist 0.89899
rhand -11.6891 -24.4302
rfingers 7.12502
rthumb 14.3566 -53.9138
lclavicle 1.31198e-014 -1.30403e-013
lhumerus -15.8671 -4.28801 77.7914
lradius 38.3498
lwrist 35.2058
lhand -27.1813 -1.93765
lfingers 7.12502
lthumb -0.595183 28.0413
rfemur -55.4351 5.2455 23.9743
rtibia 71.3488
rfoot -6.61202 -10.4472
rtoes -11.477
lfemur -34.6759 -11.3739 -17.2259
ltibia 35.2679
lfoot -18.1571 -2.27917
ltoes -22.5714
